<?xml version="1.0" ?><svg width="512px" height="512px" viewBox="0 0 512 512" id="svg2793" style="fill-rule:evenodd;clip-rule:evenodd;stroke-linejoin:round;stroke-miterlimit:2;" version="1.1" xml:space="preserve" xmlns="http://www.w3.org/2000/svg" xmlns:cc="http://creativecommons.org/ns#" xmlns:dc="http://purl.org/dc/elements/1.1/" xmlns:rdf="http://www.w3.org/1999/02/22-rdf-syntax-ns#" xmlns:serif="http://www.serif.com/" xmlns:svg="http://www.w3.org/2000/svg"><defs id="defs2797"/><g id="_06-Presentation" style="display:inline" transform="translate(0,-1024)"><g id="g2665" transform="translate(414.507,1206.7)"><path d="m 0,-33.25 c 0,-4.827 1.957,-9.551 5.369,-12.962 3.463,-3.462 8.068,-5.368 12.968,-5.368 4.9,0 9.505,1.906 12.967,5.368 3.412,3.411 5.369,8.135 5.369,12.962 v 33.239 c 0,4.899 -1.906,9.502 -5.378,12.972 -3.458,3.462 -8.06,5.369 -12.959,5.369 -4.898,0 -9.5,-1.907 -12.967,-5.378 C 1.907,9.491 0,4.888 0,-0.011 Z m -30,33.239 c 0,12.913 5.028,25.051 14.151,34.171 9.126,9.138 21.267,14.17 34.186,14.17 12.92,0 25.061,-5.032 34.177,-14.161 9.131,-9.129 14.159,-21.267 14.159,-34.18 V -33.25 c 0,-12.913 -5.028,-25.051 -14.158,-34.178 -9.128,-9.126 -21.266,-14.152 -34.179,-14.152 -12.911,0 -25.048,5.026 -34.177,14.151 C -24.972,-58.301 -30,-46.163 -30,-33.25 Z" id="path2663" style="fill-rule:nonzero"/></g><g id="g2669" transform="translate(106,1153.92)"><path d="m 0,30 h 44.335 c 8.284,0 15,-6.716 15,-15 0,-8.284 -6.716,-15 -15,-15 H 0 c -8.284,0 -15,6.716 -15,15 0,8.284 6.716,15 15,15" id="path2667" style="fill-rule:nonzero"/></g><g id="g2673" transform="translate(106,1207.6)"><path d="m 0,30 h 97.168 c 8.284,0 15,-6.715 15,-15 0,-8.283 -6.716,-15 -15,-15 H 0 c -8.284,0 -15,6.717 -15,15 0,8.285 6.716,15 15,15" id="path2671" style="fill-rule:nonzero"/></g><g id="g2677" transform="translate(106,1265.26)"><path d="m 0,30 h 31.95 c 8.284,0 15,-6.715 15,-15 0,-8.283 -6.716,-15 -15,-15 H 0 c -8.284,0 -15,6.717 -15,15 0,8.285 6.716,15 15,15" id="path2675" style="fill-rule:nonzero"/></g><g id="g2681" transform="translate(140.135,1352.92)"><path d="m 0,-30 h -34.135 c -8.284,0 -15,6.716 -15,15 0,8.284 6.716,15 15,15 H 0 C 8.284,0 15,-6.716 15,-15 15,-23.284 8.284,-30 0,-30" id="path2679" style="fill-rule:nonzero"/></g><g id="g2685" transform="translate(203.168,1153.92)"><path d="m 0,30 h 85.223 c 8.284,0 15,-6.716 15,-15 0,-8.284 -6.716,-15 -15,-15 H 0 c -8.284,0 -15,6.716 -15,15 0,8.284 6.716,15 15,15" id="path2683" style="fill-rule:nonzero"/></g><g id="g2689" transform="translate(288.391,1237.6)"><path d="m 0,-30 h -32.39 c -8.284,0 -15,6.717 -15,15 0,8.285 6.716,15 15,15 H 0 C 8.284,0 15,-6.715 15,-15 15,-23.283 8.284,-30 0,-30" id="path2687" style="fill-rule:nonzero"/></g><g id="g2693" transform="translate(482,1080.5)"><path d="M 0,399 H -120.396 V 263.17 c 0,-8.284 -6.716,-15 -15,-15 H -256.25 c -8.271,0 -15,-6.729 -15,-15 0,-8.272 6.729,-15 15,-15 H 0 Z M -420.397,311.88 V 42.36 h 270.001 V 188.17 H -256.25 c -24.813,0 -45,20.187 -45,45 0,24.812 20.187,45 45,45 h 105.854 v 33.71 z M 15,188.17 H -120.396 V 42.36 h 14.897 c 8.284,0 15,-6.715 15,-15 0,-8.284 -6.716,-15 -15,-15 H -271.25 V -15 c 0,-8.284 -6.716,-15 -15,-15 -8.284,0 -15,6.716 -15,15 V 12.36 H -467 c -8.284,0 -15,6.716 -15,15 0,8.285 6.716,15 15,15 h 16.603 V 311.88 H -467 c -8.284,0 -15,6.716 -15,15 0,8.284 6.716,15 15,15 h 100.468 l -28.82,56.284 c -3.775,7.373 -0.858,16.412 6.516,20.188 2.188,1.121 4.523,1.651 6.824,1.651 5.451,0 10.708,-2.982 13.364,-8.167 l 35.82,-69.956 h 30.829 V 405 c 0,8.284 6.716,15 15,15 8.284,0 15,-6.716 15,-15 v -63.12 h 30.829 l 35.819,69.956 c 2.656,5.185 7.913,8.168 13.364,8.168 2.3,0 4.636,-0.531 6.824,-1.652 7.374,-3.776 10.291,-12.815 6.516,-20.188 l -28.819,-56.284 h 57.07 V 414 c 0,8.284 6.716,15 15,15 H 15 c 8.284,0 15,-6.716 15,-15 V 203.17 c 0,-8.284 -6.716,-15 -15,-15" id="path2691" style="fill-rule:nonzero"/></g></g></svg>